<svg xmlns="http://www.w3.org/2000/svg" xmlns:vectornator="http://vectornator.io" xml:space="preserve" style="fill-rule:evenodd;clip-rule:evenodd;stroke-linecap:round;stroke-linejoin:round" viewBox="0 0 1000 1000" width="32" height="32"><defs><linearGradient id="a" x1="298.355" x2="743.947" y1="659.974" y2="658.862" gradientTransform="matrix(-.8444 -.8444 1.7321 -1.7321 -328.703 2333.2)" gradientUnits="userSpaceOnUse"><stop offset="0" stop-color="#199bcc"/><stop offset="1" stop-color="#0975a4"/></linearGradient><linearGradient id="b" x1="298.355" x2="743.942" y1="659.974" y2="661.171" gradientTransform="matrix(.8444 -.8444 1.7321 1.7321 -1333.2 -328.704)" gradientUnits="userSpaceOnUse"><stop offset="0" stop-color="#199bcc"/><stop offset="1" stop-color="#0975a4"/></linearGradient><linearGradient id="c" x1="298.355" x2="743.944" y1="659.974" y2="658" gradientTransform="rotate(45 2273.016 935.747) scale(1.19416 2.44957)" gradientUnits="userSpaceOnUse"><stop offset="0" stop-color="#199bcc"/><stop offset="1" stop-color="#0975a4"/></linearGradient><linearGradient id="d" x1="298.355" x2="891.238" y1="659.974" y2="659.974" gradientTransform="rotate(135 847.258 1166.138) scale(.899 2.44957)" gradientUnits="userSpaceOnUse"><stop offset="0" stop-color="#199bcc"/><stop offset="1" stop-color="#0975a4"/></linearGradient><linearGradient id="e" x1="376.266" x2="641.635" y1="537.115" y2="537.115" gradientTransform="matrix(.92324 0 0 .91898 30.116 68.9)" gradientUnits="userSpaceOnUse"><stop offset="0" stop-color="#805cb2"/><stop offset="1" stop-color="#ec52b1"/></linearGradient><linearGradient id="f" x1="400" x2="600" y1="391.156" y2="391.156" gradientUnits="userSpaceOnUse"><stop offset="0" stop-color="#805cb2"/><stop offset="1" stop-color="#ec52b1"/></linearGradient></defs><path vectornator:layerName="Background" fill="none" d="M0 0h1000v1000H0V0Z"/><g vectornator:layerName="Border Rectangles"><path fill="url(#a)" d="M500.632 1000 0 500.632l124.368-124.368 500.007 499.997L500.632 1000Z"/><path fill="url(#b)" d="M0 500.632 500.631 0l123.524 123.68-500.232 500.516L0 500.632Z"/><path fill="url(#c)" d="M500.631 0 1000 500.005 875.988 624.019l-499.722-499.63L500.631 0Z"/><path fill="url(#d)" d="M1000 500.005 623.643 876.993 500.25 752.269l376.119-376.055L1000 500.005Z"/></g><g vectornator:layerName="Center Lock"><path fill="url(#e)" d="M500 440c-67.655 0-122.5 54.845-122.5 122.5S432.345 685 500 685s122.5-54.845 122.5-122.5S567.655 440 500 440Zm.004 102c11.766 0 21.305 9.538 21.305 21.304 0 7.869-4.307 14.686-10.652 18.375v34.886h-21.305v-34.886c-6.345-3.689-10.652-10.506-10.652-18.375 0-11.766 9.538-21.304 21.304-21.304Z"/><path fill="url(#f)" d="M500 310c-55.228 0-100 44.772-100 100v62.312c11.132-11.853 24.755-21.591 40-28.812V400h.031c.459-27.672 27.119-50 59.969-50s59.51 22.328 59.969 50H560v43.5c15.245 7.221 28.868 16.959 40 28.812V410c0-55.228-44.772-100-100-100Z"/></g></svg>